<svg width="20" height="20" viewBox="0 0 20 20" fill="none" xmlns="http://www.w3.org/2000/svg">
<path d="M16.6667 3.33325H3.33341C2.41425 3.33325 1.66675 4.08075 1.66675 4.99992V14.9999C1.66675 15.9191 2.41425 16.6666 3.33341 16.6666H16.6667C17.5859 16.6666 18.3334 15.9191 18.3334 14.9999V4.99992C18.3334 4.08075 17.5859 3.33325 16.6667 3.33325ZM16.6667 4.99992V5.42575L10.0001 10.6116L3.33341 5.42659V4.99992H16.6667ZM3.33341 14.9999V7.53658L9.48841 12.3241C9.63841 12.4416 9.81925 12.4999 10.0001 12.4999C10.1809 12.4999 10.3617 12.4416 10.5117 12.3241L16.6667 7.53658L16.6684 14.9999H3.33341Z" fill="#B4B7C9"/>
</svg>
