<svg width="20" height="20" viewBox="0 0 20 20" fill="none" xmlns="http://www.w3.org/2000/svg">
<path d="M8.33333 15.0001C9.87166 15.0001 11.2858 14.4709 12.4142 13.5934L16.0775 17.2567L17.2558 16.0784L13.5925 12.4151C14.4708 11.2859 15 9.87175 15 8.33341C15 4.65758 12.0092 1.66675 8.33333 1.66675C4.6575 1.66675 1.66666 4.65758 1.66666 8.33341C1.66666 12.0092 4.6575 15.0001 8.33333 15.0001ZM8.33333 3.33341C11.0908 3.33341 13.3333 5.57591 13.3333 8.33341C13.3333 11.0909 11.0908 13.3334 8.33333 13.3334C5.57583 13.3334 3.33333 11.0909 3.33333 8.33341C3.33333 5.57591 5.57583 3.33341 8.33333 3.33341Z" fill="#33354D"/>
</svg>
