<svg width="18" height="14" viewBox="0 0 18 14" fill="none" xmlns="http://www.w3.org/2000/svg">
<path d="M15.6667 0.333252H2.33341C1.41425 0.333252 0.666748 1.08075 0.666748 1.99992V11.9999C0.666748 12.9191 1.41425 13.6666 2.33341 13.6666H15.6667C16.5859 13.6666 17.3334 12.9191 17.3334 11.9999V1.99992C17.3334 1.08075 16.5859 0.333252 15.6667 0.333252ZM15.6667 1.99992V2.42575L9.00008 7.61159L2.33341 2.42659V1.99992H15.6667ZM2.33341 11.9999V4.53658L8.48841 9.32408C8.63841 9.44158 8.81925 9.49992 9.00008 9.49992C9.18092 9.49992 9.36175 9.44158 9.51175 9.32408L15.6667 4.53658L15.6684 11.9999H2.33341Z" fill="#B4B7C9"/>
</svg>
