<svg width="17" height="17" viewBox="0 0 17 17" fill="none" xmlns="http://www.w3.org/2000/svg">
<path d="M7.33333 14.0001C8.87166 14.0001 10.2858 13.4709 11.4142 12.5934L15.0775 16.2567L16.2558 15.0784L12.5925 11.4151C13.4708 10.2859 14 8.87175 14 7.33341C14 3.65758 11.0092 0.666748 7.33333 0.666748C3.6575 0.666748 0.666664 3.65758 0.666664 7.33341C0.666664 11.0092 3.6575 14.0001 7.33333 14.0001ZM7.33333 2.33341C10.0908 2.33341 12.3333 4.57591 12.3333 7.33341C12.3333 10.0909 10.0908 12.3334 7.33333 12.3334C4.57583 12.3334 2.33333 10.0909 2.33333 7.33341C2.33333 4.57591 4.57583 2.33341 7.33333 2.33341Z" fill="#33354D"/>
</svg>
