<svg width="24" height="24" viewBox="0 0 24 24" fill="none" xmlns="http://www.w3.org/2000/svg">
<path fill-rule="evenodd" clip-rule="evenodd" d="M7 7C7 4.243 9.243 2 12 2C14.757 2 17 4.243 17 7C17 9.757 14.757 12 12 12C9.243 12 7 9.757 7 7ZM12 10C10.3431 10 9 8.65685 9 7C9 5.34315 10.3431 4 12 4C13.6569 4 15 5.34315 15 7C15 8.65685 13.6569 10 12 10Z" fill="#0B0F19"/>
<path d="M21 20V21H19V20C19 17.243 16.757 15 14 15H10C7.243 15 5 17.243 5 20V21H3V20C3 16.141 6.14 13 10 13H14C17.859 13 21 16.141 21 20Z" fill="#0B0F19"/>
</svg>
